<?xml version="1.0" encoding="UTF-8"?>
<svg version="1.1" xmlns="http://www.w3.org/2000/svg" width="150" height="150">
<path d="M0 0 C3.21207488 2.75753598 5.05803682 6.31104458 7.125 9.9375 C11.76985506 17.96067386 16.55280601 25.89528889 21.375 33.8125 C22.86236702 36.25627456 24.34928906 38.70031949 25.8359375 41.14453125 C26.19732819 41.73864304 26.55871887 42.33275482 26.93106079 42.94487 C29.97439785 47.95113555 32.99260588 52.97208685 36 58 C41.59400487 67.34976983 47.2511543 76.66085482 52.91162109 85.97045898 C56.67111125 92.15498592 60.41767524 98.34654662 64.125 104.5625 C67.2276441 109.7638137 70.45189744 114.86920496 73.78515625 119.92578125 C75 122 75 122 75 124 C71.66683723 124.08811914 68.33397953 124.14076197 65 124.1875 C64.06542969 124.21263672 63.13085938 124.23777344 62.16796875 124.26367188 C54.81662974 124.34078382 49.45222912 123.24715915 43.26953125 119.22265625 C40.55288465 116.56211939 38.62219265 113.67869493 36.6875 110.4375 C36.27435547 109.76203125 35.86121094 109.0865625 35.43554688 108.390625 C30.51055355 100.29300327 25.71987749 92.11241651 20.90527344 83.94873047 C16.78481623 76.9681912 12.58972288 70.04559231 8.25634766 63.1953125 C4.6895262 57.54771647 1.31659034 51.79854205 -2 46 C-2.89675296 47.04420562 -3.76683741 48.11135493 -4.625 49.1875 C-5.11226563 49.77917969 -5.59953125 50.37085938 -6.1015625 50.98046875 C-7.27335179 53.01027733 -7.27335179 53.01027733 -6.27441406 55.25683594 C-4.86794651 58.28424387 -3.25339002 61.06420373 -1.5078125 63.91015625 C-1.16580307 64.47043015 -0.82379364 65.03070404 -0.47142029 65.60795593 C0.6406347 67.42825371 1.75782018 69.24534394 2.875 71.0625 C4.03824408 72.96380727 5.20015406 74.86592542 6.36198425 76.76809692 C7.13890366 78.03990787 7.91625768 79.31145342 8.69404602 80.58273315 C11.9769382 85.95098507 15.21424638 91.34573921 18.4375 96.75 C22.53623025 103.62115342 26.72686312 110.42673682 31.05639648 117.15527344 C34 121.78450939 34 121.78450939 34 124 C30.85434954 124.08845016 27.70902625 124.14086835 24.5625 124.1875 C23.68400391 124.21263672 22.80550781 124.23777344 21.90039062 124.26367188 C13.31579525 124.3587043 6.46286734 122.91464096 0 117 C-2.04882812 114.10253906 -2.04882812 114.10253906 -4.03125 110.765625 C-4.38964966 110.16876892 -4.74804932 109.57191284 -5.11730957 108.95697021 C-6.25390125 107.0598659 -7.37721561 105.15530179 -8.5 103.25 C-9.25301117 101.98644532 -10.00691022 100.72341932 -10.76171875 99.4609375 C-11.85612478 97.62960741 -12.94964025 95.79780078 -14.0390625 93.96350098 C-16.6301969 89.60104511 -19.28578505 85.28673632 -22 81 C-25.08541468 84.67016439 -27.59689404 88.50416197 -29.96875 92.65625 C-30.33093628 93.2810022 -30.69312256 93.90575439 -31.06628418 94.54943848 C-32.21476688 96.53072891 -33.35802897 98.51495015 -34.5 100.5 C-36.00571622 103.11733589 -37.51682442 105.73144589 -39.03125 108.34375 C-39.53924133 109.23302185 -39.53924133 109.23302185 -40.05749512 110.14025879 C-43.79805431 116.59008645 -46.84315764 120.66489678 -53.8515625 123.28515625 C-60.14515876 124.71409932 -66.58885166 124.28635402 -73 124 C-71.47247413 118.46382242 -68.79777954 114.0290947 -65.8125 109.1875 C-64.72371161 107.39728545 -63.63518205 105.60691346 -62.546875 103.81640625 C-61.97001953 102.87168457 -61.39316406 101.92696289 -60.79882812 100.95361328 C-57.69584747 95.85862685 -54.63038257 90.74116977 -51.5625 85.625 C-50.92658936 84.56603516 -50.29067871 83.50707031 -49.63549805 82.41601562 C-45.60077587 75.69130772 -41.60175376 68.94661139 -37.625 62.1875 C-34.02226702 56.06409509 -30.3836768 49.96429056 -26.69140625 43.89453125 C-26.31860535 43.2816777 -25.94580444 42.66882416 -25.56170654 42.03739929 C-23.74017352 39.04512268 -21.91538427 36.05488199 -20.08642578 33.06713867 C-15.86464254 26.14936601 -11.78009233 19.17343336 -7.80395508 12.11279297 C-5.38856989 7.94495414 -2.75734861 3.94802187 0 0 Z " fill="#4DB8E7" transform="translate(75,10)"/>
<path d="M0 0 C3.1834744 3.78429914 5.77836672 7.77190655 8.265625 12.03125 C8.66271667 12.70361694 9.05980835 13.37598389 9.46893311 14.06872559 C10.73294379 16.21035462 11.99173146 18.35499319 13.25 20.5 C14.89924854 23.30314202 16.5506462 26.10501118 18.203125 28.90625 C18.61034286 29.59693573 19.01756073 30.28762146 19.43711853 30.99923706 C22.57587537 36.31108821 25.7878166 41.57273591 29.03466797 46.81933594 C32.53516189 52.48448311 35.9831347 58.18165815 39.4375 63.875 C40.18928886 65.11320079 40.94107924 66.35140065 41.69287109 67.58959961 C46.20044197 75.01658834 50.67820966 82.46066824 55.12890625 89.921875 C57.59541261 93.97950967 60.17184772 97.96137443 62.78515625 101.92578125 C64 104 64 104 64 106 C60.66683723 106.08811914 57.33397953 106.14076197 54 106.1875 C53.06542969 106.21263672 52.13085938 106.23777344 51.16796875 106.26367188 C43.81662974 106.34078382 38.45222912 105.24715915 32.26953125 101.22265625 C29.55288465 98.56211939 27.62219265 95.67869493 25.6875 92.4375 C25.27435547 91.76203125 24.86121094 91.0865625 24.43554688 90.390625 C19.50971047 82.29161708 14.71777601 74.10985121 9.90307617 65.94433594 C6.57115082 60.29871668 3.22354839 54.66824701 -0.27880859 49.1262207 C-1.0797761 47.85463275 -1.86961832 46.57595397 -2.64697266 45.28979492 C-4.52062614 42.20506124 -6.45479258 39.40748821 -8.8046875 36.6640625 C-11.57213417 33.19995133 -13.26902537 30.48390535 -14 26 C-11.83176874 19.11651882 -7.6029306 13.11038393 -3.45556641 7.27319336 C-1.95051672 4.92272076 -0.95332314 2.61716363 0 0 Z " fill="#499AD2" transform="translate(86,28)"/>
<path d="M0 0 C3.72033751 3.47185933 6.3303611 6.85966364 8.85546875 11.26953125 C9.19865646 11.86289276 9.54184418 12.45625427 9.89543152 13.06759644 C10.62387924 14.32856875 11.34891405 15.59151807 12.07073975 16.85629272 C13.95428524 20.15566283 15.86352977 23.44013172 17.76953125 26.7265625 C18.32670837 27.68960548 18.32670837 27.68960548 18.8951416 28.67210388 C21.63555047 33.40036637 24.45086331 38.07098794 27.375 42.6875 C27.75019775 43.28103271 28.12539551 43.87456543 28.51196289 44.48608398 C29.26465059 45.675438 30.01782486 46.86448422 30.77148438 48.05322266 C33.24823684 51.97802872 35.68944739 55.92453834 38.125 59.875 C38.61145996 60.65576904 39.09791992 61.43653809 39.59912109 62.2409668 C40.04336426 62.96324463 40.48760742 63.68552246 40.9453125 64.4296875 C41.34250488 65.07147949 41.73969727 65.71327148 42.14892578 66.37451172 C43 68 43 68 43 70 C39.85434954 70.08845016 36.70902625 70.14086835 33.5625 70.1875 C32.68400391 70.21263672 31.80550781 70.23777344 30.90039062 70.26367188 C22.31579525 70.3587043 15.46286734 68.91464096 9 63 C6.95117188 60.10253906 6.95117188 60.10253906 4.96875 56.765625 C4.61035034 56.16876892 4.25195068 55.57191284 3.88269043 54.95697021 C2.74609875 53.0598659 1.62278439 51.15530179 0.5 49.25 C-0.62312163 47.365399 -1.74888041 45.48239619 -2.87524414 43.59973145 C-3.599598 42.3847932 -4.32019483 41.16760648 -5.03686523 39.94812012 C-6.93910957 36.71816946 -8.94896984 33.61888747 -11.09375 30.546875 C-12.79704026 27.8011638 -13.00140008 26.96007524 -13.12109375 23.546875 C-11.68711707 19.01011255 -9.56657707 15.27478586 -7.0625 11.25 C-6.60681641 10.49589844 -6.15113281 9.74179688 -5.68164062 8.96484375 C-3.84322799 5.93402 -1.96661355 2.94992032 0 0 Z " fill="#499AD2" transform="translate(66,64)"/>
<path d="M0 0 C3.8430202 2.05178197 6.40171461 4.95551255 8 9 C8.23816398 13.43778888 7.52425242 17.08741246 5.3125 20.9375 C1.51046682 24.32850257 -1.50939637 25.05230188 -6.5625 24.875 C-11.04488428 23.73402946 -13.60547354 21.92577464 -16.3125 18.1875 C-17.70791913 13.74753003 -17.39653013 10.08524036 -15.8125 5.75 C-11.93971497 -0.1259497 -6.70081711 -1.27409903 0 0 Z " fill="#4CB5E4" transform="translate(57,109)"/>
</svg>
